<?xml version="1.0" encoding="UTF-8" standalone="no"?>
<!-- Created with Inkscape (http://www.inkscape.org/) -->

<svg
   width="20"
   height="20"
   viewBox="0 0 5.2916665 5.2916667"
   version="1.1"
   id="svg3663"
   inkscape:version="1.2.2 (b0a8486541, 2022-12-01)"
   sodipodi:docname="telephone.svg"
   xmlns:inkscape="http://www.inkscape.org/namespaces/inkscape"
   xmlns:sodipodi="http://sodipodi.sourceforge.net/DTD/sodipodi-0.dtd"
   xmlns="http://www.w3.org/2000/svg"
   xmlns:svg="http://www.w3.org/2000/svg">
  <sodipodi:namedview
     id="namedview3665"
     pagecolor="#ffffff"
     bordercolor="#666666"
     borderopacity="1.0"
     inkscape:showpageshadow="2"
     inkscape:pageopacity="0"
     inkscape:pagecheckerboard="false"
     inkscape:deskcolor="#d1d1d1"
     inkscape:document-units="mm"
     showgrid="false"
     inkscape:zoom="10"
     inkscape:cx="28.1"
     inkscape:cy="15.35"
     inkscape:window-width="1916"
     inkscape:window-height="1124"
     inkscape:window-x="0"
     inkscape:window-y="0"
     inkscape:window-maximized="0"
     inkscape:current-layer="layer1" />
  <defs
     id="defs3660" />
  <g
     inkscape:label="Layer 1"
     inkscape:groupmode="layer"
     id="layer1">
    <path
       d="m 4.756251,3.7290104 -0.1922481,0.83351 c -0.026953,0.117827 -0.1305271,0.200264 -0.251868,0.200264 -2.0861738,-1.41e-4 -3.7829682,-1.69695 -3.7829682,-3.78320799 0,-0.1212137 0.082409,-0.2249156 0.2002778,-0.251783 l 0.83351,-0.1922627 c 0.1213547,-0.028081 0.2454192,0.034854 0.2958661,0.149845 L 2.2434871,1.5825544 c 0.045014,0.105692 0.014676,0.228796 -0.074224,0.301398 l -0.4452029,0.357474 c 0.2809786,0.572372 0.7463601,1.037753 1.3189008,1.318887 l 0.3644881,-0.444864 c 0.071825,-0.08918 0.1959033,-0.119944 0.3015808,-0.07422 l 0.8971788,0.384596 c 0.1079492,0.05673 0.1781942,0.182456 0.1500709,0.303175 z"
       id="path26336-6"
       style="fill:#000000;fill-opacity:1;stroke-width:0.264583" />
  </g>
</svg>
