<?xml version="1.0" encoding="UTF-8" standalone="no"?>
<!-- Created with Inkscape (http://www.inkscape.org/) -->

<svg
   width="250mm"
   height="50mm"
   viewBox="0 0 250 50"
   version="1.1"
   id="svg9334"
   inkscape:version="1.2.2 (b0a8486541, 2022-12-01)"
   sodipodi:docname="logo_sgrse_banner.svg"
   inkscape:export-filename="logo_sgrse_banner.jpg"
   inkscape:export-xdpi="96"
   inkscape:export-ydpi="96"
   xmlns:inkscape="http://www.inkscape.org/namespaces/inkscape"
   xmlns:sodipodi="http://sodipodi.sourceforge.net/DTD/sodipodi-0.dtd"
   xmlns="http://www.w3.org/2000/svg"
   xmlns:svg="http://www.w3.org/2000/svg">
  <sodipodi:namedview
     id="namedview9336"
     pagecolor="#ffffff"
     bordercolor="#666666"
     borderopacity="1.0"
     inkscape:showpageshadow="2"
     inkscape:pageopacity="0.0"
     inkscape:pagecheckerboard="0"
     inkscape:deskcolor="#d1d1d1"
     inkscape:document-units="mm"
     showgrid="false"
     inkscape:zoom="1.6286918"
     inkscape:cx="451.58944"
     inkscape:cy="-26.708553"
     inkscape:window-width="1595"
     inkscape:window-height="848"
     inkscape:window-x="0"
     inkscape:window-y="0"
     inkscape:window-maximized="0"
     inkscape:current-layer="g29389" />
  <defs
     id="defs9331" />
  <g
     inkscape:label="Layer 1"
     inkscape:groupmode="layer"
     id="layer1">
    <g
       id="g29389"
       transform="translate(65.000001,-1.9588535)">
      <g
         aria-label="research • software • engineering
sebastian guenther
"
         id="text328-0"
         style="font-size:5.68749px;line-height:140%;font-family:Raleway;-inkscape-font-specification:Raleway;text-align:center;letter-spacing:0px;word-spacing:0px;text-anchor:middle;fill:#00897c;stroke:#000000;stroke-width:0.264584px">
        <path
           d="m 26.807977,30.75787 q -0.309399,0.0091 -0.545998,0.172899 -0.23205,0.1638 -0.3276,0.45045 v 1.474196 H 25.62498 V 30.48487 h 0.291199 v 0.568749 q 0.12285,-0.250249 0.32305,-0.404949 0.204749,-0.1547 0.432249,-0.1729 0.0455,-0.0046 0.07735,-0.0046 0.0364,0 0.05915,0.0046 z"
           style="font-size:4.54999px;stroke:none"
           id="path546" />
        <path
           d="m 28.172432,32.900915 q -0.254799,0 -0.473199,-0.09555 -0.218399,-0.100099 -0.377649,-0.268449 -0.15925,-0.1729 -0.250249,-0.395849 -0.08645,-0.22295 -0.08645,-0.477749 0,-0.332149 0.150149,-0.609699 0.1547,-0.277549 0.42315,-0.441349 0.268449,-0.168349 0.609698,-0.168349 0.350349,0 0.609699,0.168349 0.263899,0.16835 0.414049,0.445899 0.15015,0.273 0.15015,0.600599 0,0.0364 0,0.0728 0,0.03185 -0.0045,0.05005 h -2.029296 q 0.02275,0.254799 0.14105,0.454999 0.12285,0.195649 0.313949,0.313949 0.19565,0.11375 0.423149,0.11375 0.23205,0 0.436799,-0.1183 0.2093,-0.1183 0.2912,-0.309399 l 0.268449,0.0728 q -0.0728,0.168349 -0.222949,0.304849 -0.15015,0.1365 -0.3549,0.213849 -0.200199,0.0728 -0.432249,0.0728 z m -0.873598,-1.342247 h 1.751746 q -0.0182,-0.259349 -0.141049,-0.454999 -0.1183,-0.195649 -0.31395,-0.304849 -0.191099,-0.11375 -0.423149,-0.11375 -0.232049,0 -0.423149,0.11375 -0.191099,0.1092 -0.313949,0.309399 -0.1183,0.19565 -0.1365,0.450449 z"
           style="font-size:4.54999px;stroke:none"
           id="path548" />
        <path
           d="m 30.597577,32.900915 q -0.2912,0 -0.541449,-0.09555 -0.250249,-0.09555 -0.432249,-0.291199 l 0.1274,-0.218399 q 0.200199,0.186549 0.400399,0.272999 0.204749,0.0819 0.432249,0.0819 0.277549,0 0.450449,-0.1092 0.1729,-0.11375 0.1729,-0.323049 0,-0.14105 -0.08645,-0.21385 -0.0819,-0.07735 -0.24115,-0.12285 -0.154699,-0.05005 -0.373099,-0.104649 -0.245699,-0.06825 -0.414049,-0.14105 -0.1638,-0.07735 -0.25025,-0.1911 -0.0819,-0.118299 -0.0819,-0.304849 0,-0.232049 0.113749,-0.382199 0.1183,-0.1547 0.3185,-0.23205 0.204749,-0.0819 0.454999,-0.0819 0.272999,0 0.482299,0.08645 0.209299,0.08645 0.341249,0.24115 l -0.15015,0.209299 q -0.127399,-0.145599 -0.304849,-0.213849 -0.1729,-0.0728 -0.386749,-0.0728 -0.1456,0 -0.27755,0.04095 -0.131949,0.0364 -0.218399,0.1274 -0.0819,0.08645 -0.0819,0.241149 0,0.1274 0.0637,0.2002 0.0637,0.06825 0.191099,0.118299 0.1274,0.0455 0.31395,0.1001 0.268449,0.0728 0.468649,0.15015 0.200199,0.0728 0.309399,0.191099 0.1092,0.1183 0.1092,0.33215 0,0.332149 -0.25025,0.518699 -0.250249,0.186549 -0.659748,0.186549 z"
           style="font-size:4.54999px;stroke:none"
           id="path550" />
        <path
           d="m 33.040921,32.900915 q -0.2548,0 -0.473199,-0.09555 -0.2184,-0.100099 -0.37765,-0.268449 -0.159249,-0.1729 -0.250249,-0.395849 -0.08645,-0.22295 -0.08645,-0.477749 0,-0.332149 0.15015,-0.609699 0.154699,-0.277549 0.423149,-0.441349 0.268449,-0.168349 0.609699,-0.168349 0.350349,0 0.609698,0.168349 0.2639,0.16835 0.414049,0.445899 0.15015,0.273 0.15015,0.600599 0,0.0364 0,0.0728 0,0.03185 -0.0046,0.05005 h -2.029296 q 0.02275,0.254799 0.14105,0.454999 0.12285,0.195649 0.313949,0.313949 0.19565,0.11375 0.42315,0.11375 0.232049,0 0.436799,-0.1183 0.209299,-0.1183 0.291199,-0.309399 l 0.268449,0.0728 q -0.0728,0.168349 -0.222949,0.304849 -0.15015,0.1365 -0.354899,0.213849 -0.2002,0.0728 -0.432249,0.0728 z m -0.873599,-1.342247 h 1.751747 q -0.0182,-0.259349 -0.14105,-0.454999 -0.1183,-0.195649 -0.313949,-0.304849 -0.1911,-0.11375 -0.423149,-0.11375 -0.23205,0 -0.42315,0.11375 -0.191099,0.1092 -0.313949,0.309399 -0.1183,0.19565 -0.1365,0.450449 z"
           style="font-size:4.54999px;stroke:none"
           id="path552" />
        <path
           d="m 34.496917,32.172917 q 0,-0.22295 0.1274,-0.382199 0.1274,-0.1638 0.350349,-0.25025 0.2275,-0.091 0.523249,-0.091 0.1729,0 0.359449,0.0273 0.18655,0.0273 0.33215,0.0819 v -0.200199 q 0,-0.3003 -0.17745,-0.477749 -0.17745,-0.17745 -0.491399,-0.17745 -0.1911,0 -0.377649,0.0728 -0.182,0.06825 -0.382199,0.204749 l -0.1183,-0.218399 q 0.232049,-0.15925 0.454999,-0.2366 0.222949,-0.0819 0.454999,-0.0819 0.436799,0 0.691598,0.250249 0.2548,0.250249 0.2548,0.691599 v 1.096547 q 0,0.0637 0.0273,0.09555 0.0273,0.0273 0.08645,0.03185 v 0.245699 q -0.05005,0.0046 -0.08645,0.0091 -0.0364,0.0046 -0.0546,0 -0.11375,-0.0045 -0.1729,-0.0728 -0.05915,-0.06825 -0.0637,-0.145599 l -0.0046,-0.1729 q -0.159249,0.20475 -0.414049,0.318499 -0.254799,0.1092 -0.518698,0.1092 -0.2275,0 -0.41405,-0.09555 -0.181999,-0.100099 -0.286649,-0.263899 -0.1001,-0.16835 -0.1001,-0.368549 z m 1.587947,0.181999 q 0.05005,-0.0637 0.07735,-0.122849 0.0273,-0.05915 0.0273,-0.10465 v -0.345799 q -0.1547,-0.05915 -0.32305,-0.091 -0.163799,-0.03185 -0.332149,-0.03185 -0.332149,0 -0.536899,0.13195 -0.204749,0.131949 -0.204749,0.359449 0,0.13195 0.06825,0.250249 0.06825,0.11375 0.2002,0.1911 0.13195,0.0728 0.309399,0.0728 0.22295,0 0.414049,-0.08645 0.19565,-0.08645 0.3003,-0.22295 z"
           style="font-size:4.54999px;stroke:none"
           id="path554" />
        <path
           d="m 38.350759,30.75787 q -0.309399,0.0091 -0.545999,0.172899 -0.232049,0.1638 -0.327599,0.45045 v 1.474196 H 37.167762 V 30.48487 h 0.291199 v 0.568749 q 0.12285,-0.250249 0.323049,-0.404949 0.20475,-0.1547 0.432249,-0.1729 0.0455,-0.0046 0.07735,-0.0046 0.0364,0 0.05915,0.0046 z"
           style="font-size:4.54999px;stroke:none"
           id="path556" />
        <path
           d="m 39.719764,32.900915 q -0.259349,0 -0.477749,-0.09555 -0.213849,-0.100099 -0.377649,-0.272999 -0.15925,-0.1729 -0.25025,-0.395849 -0.08645,-0.22295 -0.08645,-0.473199 0,-0.336699 0.150149,-0.614249 0.15015,-0.277549 0.418599,-0.441349 0.26845,-0.163799 0.618799,-0.163799 0.332149,0 0.586949,0.154699 0.254799,0.15015 0.377649,0.409499 l -0.300299,0.09555 q -0.1001,-0.181999 -0.2821,-0.282099 -0.177449,-0.10465 -0.395849,-0.10465 -0.236599,0 -0.432249,0.12285 -0.19565,0.122849 -0.313949,0.336699 -0.11375,0.21385 -0.11375,0.486849 0,0.268449 0.1183,0.486849 0.118299,0.218399 0.313949,0.350349 0.19565,0.1274 0.432249,0.1274 0.1547,0 0.295749,-0.0546 0.1456,-0.0546 0.25025,-0.1456 0.1092,-0.09555 0.1456,-0.204749 l 0.304849,0.091 q -0.0637,0.168349 -0.21385,0.304849 -0.145599,0.13195 -0.345799,0.209299 -0.195649,0.0728 -0.423149,0.0728 z"
           style="font-size:4.54999px;stroke:none"
           id="path558" />
        <path
           d="m 43.182306,32.855415 h -0.309399 v -1.324047 q 0,-0.400399 -0.14105,-0.600599 -0.14105,-0.204749 -0.404949,-0.204749 -0.1729,0 -0.3458,0.091 -0.168349,0.08645 -0.300299,0.241149 -0.1274,0.15015 -0.182,0.345799 v 1.451447 H 41.18941 v -3.321492 h 0.309399 v 1.487846 q 0.14105,-0.263899 0.3913,-0.418599 0.254799,-0.159249 0.541448,-0.159249 0.20475,0 0.3458,0.0728 0.145599,0.0728 0.232049,0.21385 0.091,0.1365 0.13195,0.323049 0.04095,0.182 0.04095,0.414049 z"
           style="font-size:4.54999px;stroke:none"
           id="path560" />
        <path
           d="m 45.866797,31.281119 q 0,0.113749 -0.0546,0.209299 -0.0546,0.091 -0.150149,0.1456 -0.091,0.0546 -0.2002,0.0546 -0.1092,0 -0.204749,-0.0546 -0.091,-0.0546 -0.15015,-0.1456 -0.0546,-0.09555 -0.0546,-0.209299 0,-0.1092 0.0546,-0.2002 0.05915,-0.091 0.15015,-0.1456 0.09555,-0.05915 0.204749,-0.05915 0.1092,0 0.2002,0.05915 0.09555,0.0546 0.150149,0.1456 0.0546,0.091 0.0546,0.2002 z"
           style="font-size:4.54999px;stroke:none"
           id="path562" />
        <path
           d="m 48.537636,32.900915 q -0.2912,0 -0.541449,-0.09555 -0.25025,-0.09555 -0.432249,-0.291199 l 0.127399,-0.218399 q 0.2002,0.186549 0.4004,0.272999 0.204749,0.0819 0.432249,0.0819 0.277549,0 0.450449,-0.1092 0.172899,-0.11375 0.172899,-0.323049 0,-0.14105 -0.08645,-0.21385 -0.0819,-0.07735 -0.241149,-0.12285 -0.1547,-0.05005 -0.373099,-0.104649 -0.2457,-0.06825 -0.414049,-0.14105 -0.1638,-0.07735 -0.25025,-0.1911 -0.0819,-0.118299 -0.0819,-0.304849 0,-0.232049 0.11375,-0.382199 0.1183,-0.1547 0.318499,-0.23205 0.20475,-0.0819 0.454999,-0.0819 0.273,0 0.482299,0.08645 0.2093,0.08645 0.34125,0.24115 l -0.15015,0.209299 q -0.1274,-0.145599 -0.304849,-0.213849 -0.1729,-0.0728 -0.38675,-0.0728 -0.145599,0 -0.277549,0.04095 -0.13195,0.0364 -0.218399,0.1274 -0.0819,0.08645 -0.0819,0.241149 0,0.1274 0.0637,0.2002 0.0637,0.06825 0.191099,0.118299 0.1274,0.0455 0.313949,0.1001 0.26845,0.0728 0.468649,0.15015 0.2002,0.0728 0.3094,0.191099 0.1092,0.1183 0.1092,0.33215 0,0.332149 -0.25025,0.518699 -0.250249,0.186549 -0.659748,0.186549 z"
           style="font-size:4.54999px;stroke:none"
           id="path564" />
        <path
           d="m 50.96733,32.900915 q -0.254799,0 -0.473199,-0.09555 -0.213849,-0.100099 -0.373099,-0.268449 -0.1547,-0.1729 -0.241149,-0.391299 -0.08645,-0.22295 -0.08645,-0.468649 0,-0.2548 0.08645,-0.473199 0.08645,-0.22295 0.245699,-0.391299 0.15925,-0.1729 0.373099,-0.26845 0.2184,-0.100099 0.473199,-0.100099 0.2548,0 0.468649,0.100099 0.21385,0.09555 0.373099,0.26845 0.15925,0.168349 0.2457,0.391299 0.08645,0.218399 0.08645,0.473199 0,0.245699 -0.08645,0.468649 -0.08645,0.218399 -0.2457,0.391299 -0.154699,0.16835 -0.373099,0.268449 -0.213849,0.09555 -0.473199,0.09555 z m -0.859948,-1.219397 q 0,0.263899 0.11375,0.482299 0.1183,0.213849 0.313949,0.341249 0.19565,0.12285 0.432249,0.12285 0.2366,0 0.432249,-0.1274 0.19565,-0.1274 0.31395,-0.345799 0.118299,-0.22295 0.118299,-0.482299 0,-0.2639 -0.118299,-0.482299 -0.1183,-0.2184 -0.31395,-0.345799 -0.195649,-0.1274 -0.432249,-0.1274 -0.236599,0 -0.432249,0.13195 -0.191099,0.131949 -0.309399,0.350349 -0.1183,0.213849 -0.1183,0.482299 z"
           style="font-size:4.54999px;stroke:none"
           id="path566" />
        <path
           d="M 52.738615,32.855415 V 30.73057 h -0.327599 v -0.2457 h 0.327599 v -0.0637 q 0,-0.2912 0.0819,-0.500499 0.08645,-0.2093 0.24115,-0.3185 0.159249,-0.113749 0.373099,-0.113749 0.141049,0 0.272999,0.04095 0.13195,0.04095 0.2275,0.109199 l -0.09555,0.22295 q -0.05915,-0.05005 -0.1547,-0.07735 -0.09555,-0.0273 -0.191099,-0.0273 -0.21385,0 -0.33215,0.16835 -0.113749,0.168349 -0.113749,0.486849 v 0.0728 h 0.655198 v 0.2457 h -0.655198 v 2.124845 z"
           style="font-size:4.54999px;stroke:none"
           id="path568" />
        <path
           d="m 55.263858,32.741666 q -0.0364,0.01365 -0.113749,0.05005 -0.07735,0.0364 -0.18655,0.0637 -0.1092,0.0273 -0.236599,0.0273 -0.13195,0 -0.25025,-0.05005 -0.11375,-0.05005 -0.182,-0.150149 -0.06825,-0.10465 -0.06825,-0.2548 V 30.73057 h -0.3276 v -0.2457 h 0.3276 v -0.800798 h 0.309399 v 0.800798 h 0.545999 v 0.2457 H 54.53586 v 1.610696 q 0.0091,0.1274 0.091,0.1911 0.08645,0.0637 0.195649,0.0637 0.1274,0 0.23205,-0.04095 0.10465,-0.0455 0.1274,-0.0637 z"
           style="font-size:4.54999px;stroke:none"
           id="path570" />
        <path
           d="m 58.635397,30.48487 h 0.304849 l -1.019198,2.370545 H 57.652599 L 57.15665,31.676968 56.665251,32.855415 H 56.396802 L 55.377604,30.48487 h 0.300299 l 0.864498,2.052046 0.436799,-1.069248 -0.400399,-0.978248 h 0.27755 l 0.300299,0.768949 0.304849,-0.768949 h 0.273 l -0.395849,0.978248 0.436799,1.069248 z"
           style="font-size:4.54999px;stroke:none"
           id="path572" />
        <path
           d="m 59.099492,32.172917 q 0,-0.22295 0.127399,-0.382199 0.1274,-0.1638 0.35035,-0.25025 0.227499,-0.091 0.523248,-0.091 0.1729,0 0.35945,0.0273 0.186549,0.0273 0.332149,0.0819 v -0.200199 q 0,-0.3003 -0.17745,-0.477749 -0.177449,-0.17745 -0.491399,-0.17745 -0.191099,0 -0.377649,0.0728 -0.181999,0.06825 -0.382199,0.204749 l -0.1183,-0.218399 q 0.23205,-0.15925 0.454999,-0.2366 0.22295,-0.0819 0.454999,-0.0819 0.436799,0 0.691599,0.250249 0.254799,0.250249 0.254799,0.691599 v 1.096547 q 0,0.0637 0.0273,0.09555 0.0273,0.0273 0.08645,0.03185 v 0.245699 q -0.05005,0.0046 -0.08645,0.0091 -0.0364,0.0046 -0.0546,0 -0.113749,-0.0045 -0.172899,-0.0728 -0.05915,-0.06825 -0.0637,-0.145599 l -0.0045,-0.1729 q -0.15925,0.20475 -0.414049,0.318499 -0.2548,0.1092 -0.518699,0.1092 -0.2275,0 -0.414049,-0.09555 -0.182,-0.100099 -0.28665,-0.263899 -0.100099,-0.16835 -0.100099,-0.368549 z m 1.587946,0.181999 q 0.05005,-0.0637 0.07735,-0.122849 0.0273,-0.05915 0.0273,-0.10465 v -0.345799 q -0.1547,-0.05915 -0.323049,-0.091 -0.1638,-0.03185 -0.33215,-0.03185 -0.332149,0 -0.536898,0.13195 -0.20475,0.131949 -0.20475,0.359449 0,0.13195 0.06825,0.250249 0.06825,0.11375 0.200199,0.1911 0.13195,0.0728 0.3094,0.0728 0.222949,0 0.414049,-0.08645 0.195649,-0.08645 0.300299,-0.22295 z"
           style="font-size:4.54999px;stroke:none"
           id="path574" />
        <path
           d="m 62.953336,30.75787 q -0.309399,0.0091 -0.545998,0.172899 -0.23205,0.1638 -0.3276,0.45045 v 1.474196 H 61.770339 V 30.48487 h 0.291199 v 0.568749 q 0.12285,-0.250249 0.32305,-0.404949 0.204749,-0.1547 0.432249,-0.1729 0.0455,-0.0046 0.07735,-0.0046 0.0364,0 0.05915,0.0046 z"
           style="font-size:4.54999px;stroke:none"
           id="path576" />
        <path
           d="m 64.317791,32.900915 q -0.254799,0 -0.473199,-0.09555 -0.218399,-0.100099 -0.377649,-0.268449 -0.15925,-0.1729 -0.250249,-0.395849 -0.08645,-0.22295 -0.08645,-0.477749 0,-0.332149 0.150149,-0.609699 0.1547,-0.277549 0.42315,-0.441349 0.268449,-0.168349 0.609698,-0.168349 0.35035,0 0.609699,0.168349 0.263899,0.16835 0.414049,0.445899 0.15015,0.273 0.15015,0.600599 0,0.0364 0,0.0728 0,0.03185 -0.0045,0.05005 h -2.029296 q 0.02275,0.254799 0.14105,0.454999 0.12285,0.195649 0.313949,0.313949 0.19565,0.11375 0.423149,0.11375 0.23205,0 0.436799,-0.1183 0.2093,-0.1183 0.2912,-0.309399 l 0.268449,0.0728 q -0.0728,0.168349 -0.222949,0.304849 -0.15015,0.1365 -0.3549,0.213849 -0.200199,0.0728 -0.432249,0.0728 z m -0.873598,-1.342247 h 1.751746 q -0.0182,-0.259349 -0.141049,-0.454999 -0.1183,-0.195649 -0.31395,-0.304849 -0.191099,-0.11375 -0.423149,-0.11375 -0.232049,0 -0.423149,0.11375 -0.191099,0.1092 -0.313949,0.309399 -0.1183,0.19565 -0.1365,0.450449 z"
           style="font-size:4.54999px;stroke:none"
           id="path578" />
        <path
           d="m 67.989627,31.281119 q 0,0.113749 -0.0546,0.209299 -0.0546,0.091 -0.15015,0.1456 -0.091,0.0546 -0.200199,0.0546 -0.1092,0 -0.20475,-0.0546 -0.091,-0.0546 -0.15015,-0.1456 -0.0546,-0.09555 -0.0546,-0.209299 0,-0.1092 0.0546,-0.2002 0.05915,-0.091 0.15015,-0.1456 0.09555,-0.05915 0.20475,-0.05915 0.109199,0 0.200199,0.05915 0.09555,0.0546 0.15015,0.1456 0.0546,0.091 0.0546,0.2002 z"
           style="font-size:4.54999px;stroke:none"
           id="path580" />
        <path
           d="m 70.906166,32.900915 q -0.254799,0 -0.473199,-0.09555 -0.218399,-0.100099 -0.377649,-0.268449 -0.159249,-0.1729 -0.250249,-0.395849 -0.08645,-0.22295 -0.08645,-0.477749 0,-0.332149 0.15015,-0.609699 0.154699,-0.277549 0.423149,-0.441349 0.268449,-0.168349 0.609698,-0.168349 0.35035,0 0.609699,0.168349 0.263899,0.16835 0.414049,0.445899 0.15015,0.273 0.15015,0.600599 0,0.0364 0,0.0728 0,0.03185 -0.0045,0.05005 h -2.029296 q 0.02275,0.254799 0.14105,0.454999 0.12285,0.195649 0.313949,0.313949 0.19565,0.11375 0.423149,0.11375 0.23205,0 0.436799,-0.1183 0.2093,-0.1183 0.2912,-0.309399 l 0.268449,0.0728 q -0.0728,0.168349 -0.222949,0.304849 -0.15015,0.1365 -0.3549,0.213849 -0.200199,0.0728 -0.432249,0.0728 z m -0.873598,-1.342247 h 1.751746 q -0.0182,-0.259349 -0.141049,-0.454999 -0.1183,-0.195649 -0.31395,-0.304849 -0.191099,-0.11375 -0.423149,-0.11375 -0.232049,0 -0.423149,0.11375 -0.191099,0.1092 -0.313949,0.309399 -0.1183,0.19565 -0.1365,0.450449 z"
           style="font-size:4.54999px;stroke:none"
           id="path582" />
        <path
           d="M 74.546159,32.855415 H 74.23676 v -1.324047 q 0,-0.418599 -0.12285,-0.609698 -0.12285,-0.19565 -0.386749,-0.19565 -0.182,0 -0.359449,0.091 -0.17745,0.08645 -0.313949,0.241149 -0.13195,0.15015 -0.1911,0.345799 v 1.451447 H 72.553264 V 30.48487 h 0.282099 v 0.536899 q 0.09555,-0.172899 0.250249,-0.300299 0.1547,-0.13195 0.35035,-0.20475 0.195649,-0.0728 0.404949,-0.0728 0.195649,0 0.332149,0.0728 0.1365,0.0728 0.2184,0.2093 0.0819,0.13195 0.118299,0.323049 0.0364,0.18655 0.0364,0.418599 z"
           style="font-size:4.54999px;stroke:none"
           id="path584" />
        <path
           d="m 76.156857,32.887265 q -0.24115,0 -0.445899,-0.1001 -0.20475,-0.100099 -0.3549,-0.268449 -0.145599,-0.1729 -0.227499,-0.391299 -0.0819,-0.2184 -0.0819,-0.450449 0,-0.25025 0.07735,-0.468649 0.0819,-0.22295 0.227499,-0.395849 0.15015,-0.1729 0.35035,-0.26845 0.200199,-0.100099 0.445899,-0.100099 0.304849,0 0.527799,0.154699 0.227499,0.1547 0.382199,0.382199 V 30.48487 h 0.277549 v 2.379645 q 0,0.3276 -0.15925,0.550549 -0.154699,0.2275 -0.423149,0.341249 -0.263899,0.11375 -0.577848,0.11375 -0.40495,0 -0.655199,-0.1456 -0.250249,-0.145599 -0.409499,-0.391299 l 0.191099,-0.150149 q 0.14105,0.222949 0.3731,0.332149 0.236599,0.1092 0.500499,0.1092 0.232049,0 0.423149,-0.08645 0.195649,-0.0819 0.309399,-0.25025 0.1183,-0.168349 0.1183,-0.423149 v -0.468649 q -0.1365,0.22295 -0.373099,0.35945 -0.2366,0.131949 -0.495949,0.131949 z m 0.08645,-0.259349 q 0.14105,0 0.26845,-0.05005 0.13195,-0.05005 0.241149,-0.13195 0.1092,-0.08645 0.182,-0.191099 0.0728,-0.10465 0.091,-0.21385 v -0.732548 q -0.06825,-0.1729 -0.19565,-0.30485 -0.1274,-0.136499 -0.291199,-0.209299 -0.15925,-0.07735 -0.332149,-0.07735 -0.2002,0 -0.35945,0.08645 -0.154699,0.0819 -0.263899,0.222949 -0.10465,0.1365 -0.1638,0.3094 -0.05915,0.172899 -0.05915,0.345799 0,0.191099 0.06825,0.363999 0.06825,0.16835 0.18655,0.304849 0.12285,0.13195 0.282099,0.20475 0.1638,0.0728 0.345799,0.0728 z"
           style="font-size:4.54999px;stroke:none"
           id="path586" />
        <path
           d="M 78.017802,32.855415 V 30.48487 h 0.3094 v 2.370545 z m 0,-2.866493 v -0.454999 h 0.3094 v 0.454999 z"
           style="font-size:4.54999px;stroke:none"
           id="path588" />
        <path
           d="M 81.002599,32.855415 H 80.6932 v -1.324047 q 0,-0.418599 -0.12285,-0.609698 -0.12285,-0.19565 -0.386749,-0.19565 -0.182,0 -0.359449,0.091 -0.17745,0.08645 -0.31395,0.241149 -0.131949,0.15015 -0.191099,0.345799 v 1.451447 H 79.009704 V 30.48487 h 0.282099 v 0.536899 q 0.09555,-0.172899 0.250249,-0.300299 0.1547,-0.13195 0.35035,-0.20475 0.195649,-0.0728 0.404949,-0.0728 0.195649,0 0.332149,0.0728 0.1365,0.0728 0.2184,0.2093 0.0819,0.13195 0.118299,0.323049 0.0364,0.18655 0.0364,0.418599 z"
           style="font-size:4.54999px;stroke:none"
           id="path590" />
        <path
           d="m 82.686096,32.900915 q -0.254799,0 -0.473199,-0.09555 -0.218399,-0.100099 -0.377649,-0.268449 -0.159249,-0.1729 -0.250249,-0.395849 -0.08645,-0.22295 -0.08645,-0.477749 0,-0.332149 0.15015,-0.609699 0.154699,-0.277549 0.423149,-0.441349 0.268449,-0.168349 0.609698,-0.168349 0.35035,0 0.609699,0.168349 0.2639,0.16835 0.414049,0.445899 0.15015,0.273 0.15015,0.600599 0,0.0364 0,0.0728 0,0.03185 -0.0046,0.05005 h -2.029296 q 0.02275,0.254799 0.14105,0.454999 0.12285,0.195649 0.313949,0.313949 0.19565,0.11375 0.423149,0.11375 0.23205,0 0.436799,-0.1183 0.2093,-0.1183 0.2912,-0.309399 l 0.268449,0.0728 q -0.0728,0.168349 -0.222949,0.304849 -0.15015,0.1365 -0.354899,0.213849 -0.2002,0.0728 -0.43225,0.0728 z m -0.873598,-1.342247 h 1.751747 q -0.0182,-0.259349 -0.14105,-0.454999 -0.1183,-0.195649 -0.313949,-0.304849 -0.1911,-0.11375 -0.42315,-0.11375 -0.232049,0 -0.423149,0.11375 -0.191099,0.1092 -0.313949,0.309399 -0.1183,0.19565 -0.1365,0.450449 z"
           style="font-size:4.54999px;stroke:none"
           id="path592" />
        <path
           d="m 85.356938,32.900915 q -0.2548,0 -0.473199,-0.09555 -0.2184,-0.100099 -0.377649,-0.268449 -0.15925,-0.1729 -0.25025,-0.395849 -0.08645,-0.22295 -0.08645,-0.477749 0,-0.332149 0.15015,-0.609699 0.1547,-0.277549 0.423149,-0.441349 0.268449,-0.168349 0.609699,-0.168349 0.350349,0 0.609698,0.168349 0.2639,0.16835 0.414049,0.445899 0.15015,0.273 0.15015,0.600599 0,0.0364 0,0.0728 0,0.03185 -0.0045,0.05005 H 84.49244 q 0.02275,0.254799 0.141049,0.454999 0.12285,0.195649 0.31395,0.313949 0.195649,0.11375 0.423149,0.11375 0.232049,0 0.436799,-0.1183 0.209299,-0.1183 0.291199,-0.309399 l 0.26845,0.0728 q -0.0728,0.168349 -0.22295,0.304849 -0.15015,0.1365 -0.354899,0.213849 -0.2002,0.0728 -0.432249,0.0728 z M 84.48334,31.558668 h 1.751746 q -0.0182,-0.259349 -0.14105,-0.454999 -0.1183,-0.195649 -0.313949,-0.304849 -0.1911,-0.11375 -0.423149,-0.11375 -0.23205,0 -0.423149,0.11375 -0.1911,0.1092 -0.31395,0.309399 -0.118299,0.19565 -0.136499,0.450449 z"
           style="font-size:4.54999px;stroke:none"
           id="path594" />
        <path
           d="m 88.187032,30.75787 q -0.309399,0.0091 -0.545998,0.172899 -0.23205,0.1638 -0.3276,0.45045 v 1.474196 H 87.004035 V 30.48487 h 0.291199 v 0.568749 q 0.12285,-0.250249 0.32305,-0.404949 0.204749,-0.1547 0.432249,-0.1729 0.0455,-0.0046 0.07735,-0.0046 0.0364,0 0.05915,0.0046 z"
           style="font-size:4.54999px;stroke:none"
           id="path596" />
        <path
           d="M 88.601081,32.855415 V 30.48487 h 0.309399 v 2.370545 z m 0,-2.866493 v -0.454999 h 0.309399 v 0.454999 z"
           style="font-size:4.54999px;stroke:none"
           id="path598" />
        <path
           d="m 91.585874,32.855415 h -0.309399 v -1.324047 q 0,-0.418599 -0.12285,-0.609698 -0.12285,-0.19565 -0.386749,-0.19565 -0.182,0 -0.359449,0.091 -0.17745,0.08645 -0.31395,0.241149 -0.131949,0.15015 -0.191099,0.345799 v 1.451447 h -0.3094 V 30.48487 h 0.2821 v 0.536899 q 0.09555,-0.172899 0.250249,-0.300299 0.1547,-0.13195 0.35035,-0.20475 0.195649,-0.0728 0.404949,-0.0728 0.195649,0 0.332149,0.0728 0.1365,0.0728 0.218399,0.2093 0.0819,0.13195 0.1183,0.323049 0.0364,0.18655 0.0364,0.418599 z"
           style="font-size:4.54999px;stroke:none"
           id="path600" />
        <path
           d="m 93.196571,32.887265 q -0.241149,0 -0.445899,-0.1001 -0.204749,-0.100099 -0.354899,-0.268449 -0.145599,-0.1729 -0.227499,-0.391299 -0.0819,-0.2184 -0.0819,-0.450449 0,-0.25025 0.07735,-0.468649 0.0819,-0.22295 0.227499,-0.395849 0.15015,-0.1729 0.350349,-0.26845 0.2002,-0.100099 0.445899,-0.100099 0.30485,0 0.527799,0.154699 0.2275,0.1547 0.3822,0.382199 V 30.48487 h 0.277549 v 2.379645 q 0,0.3276 -0.15925,0.550549 -0.154699,0.2275 -0.423149,0.341249 -0.263899,0.11375 -0.577849,0.11375 -0.404949,0 -0.655198,-0.1456 -0.25025,-0.145599 -0.409499,-0.391299 l 0.191099,-0.150149 q 0.14105,0.222949 0.3731,0.332149 0.236599,0.1092 0.500498,0.1092 0.23205,0 0.42315,-0.08645 0.195649,-0.0819 0.309399,-0.25025 0.1183,-0.168349 0.1183,-0.423149 v -0.468649 q -0.1365,0.22295 -0.3731,0.35945 -0.236599,0.131949 -0.495949,0.131949 z m 0.08645,-0.259349 q 0.14105,0 0.26845,-0.05005 0.131949,-0.05005 0.241149,-0.13195 0.1092,-0.08645 0.182,-0.191099 0.0728,-0.10465 0.091,-0.21385 v -0.732548 q -0.06825,-0.1729 -0.19565,-0.30485 -0.1274,-0.136499 -0.291199,-0.209299 -0.15925,-0.07735 -0.33215,-0.07735 -0.200199,0 -0.359449,0.08645 -0.1547,0.0819 -0.263899,0.222949 -0.10465,0.1365 -0.1638,0.3094 -0.05915,0.172899 -0.05915,0.345799 0,0.191099 0.06825,0.363999 0.06825,0.16835 0.18655,0.304849 0.122849,0.13195 0.282099,0.20475 0.1638,0.0728 0.345799,0.0728 z"
           style="font-size:4.54999px;stroke:none"
           id="path602" />
        <path
           d="m 36.135295,41.216801 q -0.363999,0 -0.676811,-0.119437 -0.312812,-0.119438 -0.540312,-0.364 l 0.15925,-0.272999 q 0.25025,0.233187 0.500499,0.341249 0.255937,0.102375 0.540312,0.102375 0.346937,0 0.563061,-0.1365 0.216125,-0.142187 0.216125,-0.403811 0,-0.176313 -0.108062,-0.267313 -0.102375,-0.09669 -0.301437,-0.153562 -0.193375,-0.06256 -0.466375,-0.130812 -0.307124,-0.08531 -0.517561,-0.176312 -0.20475,-0.09669 -0.312812,-0.238875 -0.102375,-0.147875 -0.102375,-0.381062 0,-0.290062 0.142187,-0.477749 0.147875,-0.193374 0.398125,-0.290062 0.255937,-0.102375 0.568749,-0.102375 0.341249,0 0.602874,0.108063 0.261624,0.108062 0.426561,0.301437 l -0.187687,0.261624 q -0.15925,-0.181999 -0.381062,-0.267312 -0.216124,-0.091 -0.483436,-0.091 -0.182,0 -0.346937,0.05119 -0.164937,0.0455 -0.273,0.159249 -0.102375,0.108063 -0.102375,0.301437 0,0.15925 0.07963,0.25025 0.07963,0.08531 0.238875,0.147875 0.15925,0.05687 0.392437,0.125125 0.335562,0.091 0.585811,0.187687 0.25025,0.091 0.386749,0.238874 0.1365,0.147875 0.1365,0.415187 0,0.415187 -0.312812,0.648374 -0.312812,0.233187 -0.824686,0.233187 z"
           style="fill:#3c667b;stroke:none"
           id="path604" />
        <path
           d="m 39.189476,41.216801 q -0.318499,0 -0.591499,-0.119437 -0.272999,-0.125125 -0.472061,-0.335562 -0.199063,-0.216125 -0.312812,-0.494812 -0.108063,-0.278687 -0.108063,-0.597186 0,-0.415187 0.187687,-0.762124 0.193375,-0.346937 0.528937,-0.551686 0.335562,-0.210438 0.762124,-0.210438 0.437936,0 0.762123,0.210438 0.329875,0.210437 0.517562,0.557374 0.187687,0.341249 0.187687,0.750748 0,0.0455 0,0.091 0,0.03981 -0.0057,0.06256 h -2.536621 q 0.02844,0.3185 0.176312,0.568749 0.153562,0.244563 0.392437,0.392437 0.244562,0.142188 0.528937,0.142188 0.290062,0 0.545999,-0.147875 0.261624,-0.147875 0.363999,-0.38675 l 0.335562,0.091 q -0.091,0.210437 -0.278687,0.381062 -0.187687,0.170625 -0.443624,0.267312 -0.25025,0.091 -0.540312,0.091 z m -1.091998,-1.67781 h 2.189684 q -0.02275,-0.324186 -0.176312,-0.568749 -0.147875,-0.244562 -0.392437,-0.381061 -0.238875,-0.142188 -0.528937,-0.142188 -0.290062,0 -0.528936,0.142188 -0.238875,0.136499 -0.392437,0.386749 -0.147875,0.244562 -0.170625,0.563061 z"
           style="fill:#3c667b;stroke:none"
           id="path606" />
        <path
           d="m 42.698657,41.216801 q -0.346937,0 -0.642687,-0.176312 -0.295749,-0.182 -0.460686,-0.454999 v 0.574436 h -0.346937 v -4.151868 h 0.386749 v 1.808622 q 0.199062,-0.301437 0.477749,-0.483436 0.278687,-0.187688 0.648374,-0.187688 0.312812,0 0.557374,0.130813 0.25025,0.130812 0.426562,0.352624 0.176312,0.216125 0.267312,0.494812 0.091,0.272999 0.091,0.563061 0,0.312812 -0.108063,0.585812 -0.102374,0.272999 -0.295749,0.489124 -0.193375,0.210437 -0.449312,0.335562 -0.250249,0.119437 -0.551686,0.119437 z m -0.091,-0.341249 q 0.238874,0 0.443624,-0.09669 0.20475,-0.09669 0.352624,-0.267312 0.147875,-0.170624 0.2275,-0.381062 0.07963,-0.216124 0.07963,-0.443624 0,-0.312812 -0.1365,-0.585811 -0.130812,-0.278687 -0.369687,-0.443624 -0.233187,-0.170625 -0.551686,-0.170625 -0.2275,0 -0.426562,0.102375 -0.193375,0.102374 -0.346937,0.272999 -0.147875,0.164937 -0.244562,0.364 v 0.921373 q 0.02275,0.153562 0.119437,0.290062 0.09669,0.130812 0.238875,0.227499 0.147875,0.09669 0.307124,0.153563 0.15925,0.05687 0.307125,0.05687 z"
           style="fill:#3c667b;stroke:none"
           id="path608" />
        <path
           d="m 44.518657,40.306803 q 0,-0.278687 0.15925,-0.47775 0.159249,-0.204749 0.437936,-0.312812 0.284375,-0.113749 0.654062,-0.113749 0.216124,0 0.449312,0.03412 0.233187,0.03413 0.415186,0.102374 v -0.250249 q 0,-0.375374 -0.221812,-0.597187 -0.221812,-0.221812 -0.614249,-0.221812 -0.238874,0 -0.472061,0.091 -0.2275,0.08531 -0.47775,0.255937 l -0.147874,-0.272999 q 0.290062,-0.199062 0.568749,-0.29575 0.278687,-0.102375 0.568749,-0.102375 0.545999,0 0.864498,0.312812 0.3185,0.312812 0.3185,0.864499 v 1.370685 q 0,0.07963 0.03413,0.119437 0.03412,0.03412 0.108062,0.03981 v 0.307124 q -0.06256,0.0057 -0.108062,0.01138 -0.0455,0.0057 -0.06825,0 -0.142188,-0.0057 -0.216125,-0.091 -0.07394,-0.08531 -0.07963,-0.181999 l -0.0057,-0.216125 q -0.199062,0.255937 -0.517562,0.398124 -0.318499,0.1365 -0.648374,0.1365 -0.284374,0 -0.517561,-0.119437 -0.2275,-0.125125 -0.358312,-0.329875 -0.125125,-0.210437 -0.125125,-0.460686 z m 1.984934,0.227499 q 0.06256,-0.07963 0.09669,-0.153562 0.03412,-0.07394 0.03412,-0.130812 v -0.43225 q -0.193374,-0.07394 -0.403812,-0.113749 -0.204749,-0.03981 -0.415186,-0.03981 -0.415187,0 -0.671124,0.164937 -0.255937,0.164938 -0.255937,0.449312 0,0.164937 0.08531,0.312812 0.08531,0.142187 0.25025,0.238875 0.164937,0.091 0.386749,0.091 0.278687,0 0.517562,-0.108063 0.244562,-0.108062 0.375374,-0.278687 z"
           style="fill:#3c667b;stroke:none"
           id="path610" />
        <path
           d="m 48.829775,41.216801 q -0.363999,0 -0.676811,-0.119437 -0.312812,-0.119438 -0.540312,-0.364 l 0.15925,-0.272999 q 0.25025,0.233187 0.500499,0.341249 0.255937,0.102375 0.540312,0.102375 0.346937,0 0.563061,-0.1365 0.216125,-0.142187 0.216125,-0.403811 0,-0.176313 -0.108062,-0.267313 -0.102375,-0.09669 -0.301437,-0.153562 -0.193375,-0.06256 -0.466375,-0.130812 -0.307124,-0.08531 -0.517561,-0.176312 -0.20475,-0.09669 -0.312812,-0.238875 -0.102375,-0.147875 -0.102375,-0.381062 0,-0.290062 0.142187,-0.477749 0.147875,-0.193374 0.398125,-0.290062 0.255937,-0.102375 0.568749,-0.102375 0.341249,0 0.602873,0.108063 0.261625,0.108062 0.426562,0.301437 l -0.187687,0.261624 q -0.15925,-0.181999 -0.381062,-0.267312 -0.216124,-0.091 -0.483436,-0.091 -0.182,0 -0.346937,0.05119 -0.164937,0.0455 -0.273,0.159249 -0.102375,0.108063 -0.102375,0.301437 0,0.15925 0.07963,0.25025 0.07963,0.08531 0.238875,0.147875 0.15925,0.05687 0.392437,0.125125 0.335562,0.091 0.585811,0.187687 0.25025,0.091 0.386749,0.238874 0.1365,0.147875 0.1365,0.415187 0,0.415187 -0.312812,0.648374 -0.312812,0.233187 -0.824686,0.233187 z"
           style="fill:#3c667b;stroke:none"
           id="path612" />
        <path
           d="m 52.026143,41.017739 q -0.0455,0.01706 -0.142187,0.06256 -0.09669,0.0455 -0.233187,0.07963 -0.1365,0.03413 -0.29575,0.03413 -0.164937,0 -0.312812,-0.06256 -0.142187,-0.06256 -0.227499,-0.187688 -0.08531,-0.130812 -0.08531,-0.318499 v -2.121434 h -0.409499 v -0.307124 h 0.409499 v -1.000998 h 0.386749 v 1.000998 h 0.682499 v 0.307124 h -0.682499 v 2.013372 q 0.01138,0.159249 0.11375,0.238874 0.108063,0.07963 0.244562,0.07963 0.15925,0 0.290062,-0.05119 0.130813,-0.05687 0.15925,-0.07963 z"
           style="fill:#3c667b;stroke:none"
           id="path614" />
        <path
           d="m 52.509574,41.159926 v -2.963182 h 0.38675 v 2.963182 z m 0,-3.583119 v -0.568749 h 0.38675 v 0.568749 z"
           style="fill:#3c667b;stroke:none"
           id="path616" />
        <path
           d="m 53.510576,40.306803 q 0,-0.278687 0.159249,-0.47775 0.15925,-0.204749 0.437937,-0.312812 0.284375,-0.113749 0.654061,-0.113749 0.216125,0 0.449312,0.03412 0.233187,0.03413 0.415187,0.102374 v -0.250249 q 0,-0.375374 -0.221812,-0.597187 -0.221812,-0.221812 -0.614249,-0.221812 -0.238875,0 -0.472062,0.091 -0.227499,0.08531 -0.477749,0.255937 l -0.147875,-0.272999 q 0.290062,-0.199062 0.568749,-0.29575 0.278687,-0.102375 0.568749,-0.102375 0.545999,0 0.864499,0.312812 0.318499,0.312812 0.318499,0.864499 v 1.370685 q 0,0.07963 0.03413,0.119437 0.03413,0.03412 0.108062,0.03981 v 0.307124 q -0.06256,0.0057 -0.108062,0.01138 -0.0455,0.0057 -0.06825,0 -0.142187,-0.0057 -0.216124,-0.091 -0.07394,-0.08531 -0.07963,-0.181999 l -0.0057,-0.216125 q -0.199062,0.255937 -0.517561,0.398124 -0.3185,0.1365 -0.648374,0.1365 -0.284375,0 -0.517562,-0.119437 -0.227499,-0.125125 -0.358312,-0.329875 -0.125124,-0.210437 -0.125124,-0.460686 z m 1.984934,0.227499 q 0.06256,-0.07963 0.09669,-0.153562 0.03413,-0.07394 0.03413,-0.130812 v -0.43225 q -0.193375,-0.07394 -0.403812,-0.113749 -0.20475,-0.03981 -0.415187,-0.03981 -0.415186,0 -0.671124,0.164937 -0.255937,0.164938 -0.255937,0.449312 0,0.164937 0.08531,0.312812 0.08531,0.142187 0.250249,0.238875 0.164938,0.091 0.38675,0.091 0.278687,0 0.517561,-0.108063 0.244562,-0.108062 0.375375,-0.278687 z"
           style="fill:#3c667b;stroke:none"
           id="path618" />
        <path
           d="m 59.340253,41.159926 h -0.38675 v -1.655059 q 0,-0.52325 -0.153562,-0.762124 -0.153562,-0.244562 -0.483437,-0.244562 -0.227499,0 -0.449311,0.11375 -0.221812,0.108062 -0.392437,0.301437 -0.164937,0.187687 -0.238875,0.432249 v 1.814309 h -0.386749 v -2.963182 h 0.352624 v 0.671124 q 0.119438,-0.216125 0.312812,-0.375375 0.193375,-0.164937 0.437937,-0.255937 0.244562,-0.091 0.506187,-0.091 0.244562,0 0.415186,0.091 0.170625,0.091 0.273,0.261625 0.102375,0.164937 0.147875,0.403812 0.0455,0.233187 0.0455,0.523249 z"
           style="fill:#3c667b;stroke:none"
           id="path620" />
        <path
           d="m 62.803931,41.199739 q -0.301437,0 -0.557374,-0.125125 -0.255937,-0.125125 -0.443625,-0.335562 -0.181999,-0.216125 -0.284374,-0.489124 -0.102375,-0.273 -0.102375,-0.563062 0,-0.312812 0.09669,-0.585811 0.102375,-0.278687 0.284375,-0.494812 0.187687,-0.216125 0.437937,-0.335562 0.250249,-0.125125 0.557374,-0.125125 0.381062,0 0.659749,0.193375 0.284374,0.193375 0.477749,0.477749 v -0.619936 h 0.346937 v 2.974557 q 0,0.409499 -0.199063,0.688186 -0.193374,0.284375 -0.528936,0.426562 -0.329875,0.142187 -0.722311,0.142187 -0.506187,0 -0.818999,-0.181999 -0.312812,-0.182 -0.511874,-0.489124 l 0.238875,-0.187688 q 0.176312,0.278687 0.466374,0.415187 0.295749,0.1365 0.625624,0.1365 0.290062,0 0.528936,-0.108062 0.244562,-0.102375 0.38675,-0.312812 0.147874,-0.210437 0.147874,-0.528937 V 40.58549 q -0.170624,0.278687 -0.466374,0.449311 -0.295749,0.164938 -0.619936,0.164938 z m 0.108062,-0.324187 q 0.176312,0 0.335562,-0.06256 0.164937,-0.06256 0.301437,-0.164937 0.1365,-0.108062 0.227499,-0.238875 0.091,-0.130812 0.11375,-0.267312 V 39.22618 q -0.08531,-0.216125 -0.244562,-0.381062 -0.15925,-0.170625 -0.363999,-0.261625 -0.199062,-0.09669 -0.415187,-0.09669 -0.250249,0 -0.449312,0.108062 -0.193374,0.102375 -0.329874,0.278687 -0.130812,0.170625 -0.20475,0.386749 -0.07394,0.216125 -0.07394,0.43225 0,0.238874 0.08531,0.454999 0.08531,0.210437 0.233187,0.381062 0.153563,0.164937 0.352625,0.255937 0.204749,0.091 0.432249,0.091 z"
           style="fill:#3c667b;stroke:none"
           id="path622" />
        <path
           d="m 65.101678,39.937116 v -1.740372 h 0.386749 v 1.672122 q 0,0.506186 0.170625,0.756436 0.176312,0.25025 0.517561,0.25025 0.2275,0 0.437937,-0.09669 0.216124,-0.102375 0.381062,-0.284374 0.164937,-0.187687 0.250249,-0.432249 v -1.865497 h 0.38675 v 2.496808 q 0,0.07963 0.03412,0.119437 0.03413,0.03412 0.102375,0.03981 v 0.307124 q -0.06825,0.0057 -0.108062,0.0057 -0.03981,0.0057 -0.07394,0.0057 -0.11375,-0.01138 -0.199063,-0.091 -0.07962,-0.07963 -0.08531,-0.193374 l -0.01138,-0.398125 q -0.193375,0.34125 -0.528936,0.534624 -0.329875,0.193375 -0.716624,0.193375 -0.466374,0 -0.705249,-0.324187 -0.238874,-0.324187 -0.238874,-0.955498 z"
           style="fill:#3c667b;stroke:none"
           id="path624" />
        <path
           d="m 69.788169,41.216801 q -0.3185,0 -0.591499,-0.119437 -0.273,-0.125125 -0.472062,-0.335562 -0.199062,-0.216125 -0.312812,-0.494812 -0.108062,-0.278687 -0.108062,-0.597186 0,-0.415187 0.187687,-0.762124 0.193375,-0.346937 0.528936,-0.551686 0.335562,-0.210438 0.762124,-0.210438 0.437937,0 0.762124,0.210438 0.329874,0.210437 0.517561,0.557374 0.187688,0.341249 0.187688,0.750748 0,0.0455 0,0.091 0,0.03981 -0.0057,0.06256 h -2.536621 q 0.02844,0.3185 0.176313,0.568749 0.153562,0.244563 0.392436,0.392437 0.244563,0.142188 0.528937,0.142188 0.290062,0 0.545999,-0.147875 0.261625,-0.147875 0.363999,-0.38675 l 0.335562,0.091 q -0.091,0.210437 -0.278687,0.381062 -0.187687,0.170625 -0.443624,0.267312 -0.250249,0.091 -0.540311,0.091 z m -1.091998,-1.67781 h 2.189683 q -0.02275,-0.324186 -0.176312,-0.568749 -0.147875,-0.244562 -0.392437,-0.381061 -0.238874,-0.142188 -0.528936,-0.142188 -0.290062,0 -0.528937,0.142188 -0.238875,0.136499 -0.392437,0.386749 -0.147875,0.244562 -0.170624,0.563061 z"
           style="fill:#3c667b;stroke:none"
           id="path626" />
        <path
           d="m 74.338158,41.159926 h -0.386749 v -1.655059 q 0,-0.52325 -0.153562,-0.762124 -0.153562,-0.244562 -0.483437,-0.244562 -0.227499,0 -0.449312,0.11375 -0.221812,0.108062 -0.392436,0.301437 -0.164938,0.187687 -0.238875,0.432249 v 1.814309 h -0.386749 v -2.963182 h 0.352624 v 0.671124 q 0.119437,-0.216125 0.312812,-0.375375 0.193375,-0.164937 0.437937,-0.255937 0.244562,-0.091 0.506186,-0.091 0.244562,0 0.415187,0.091 0.170625,0.091 0.273,0.261625 0.102374,0.164937 0.147874,0.403812 0.0455,0.233187 0.0455,0.523249 z"
           style="fill:#3c667b;stroke:none"
           id="path628" />
        <path
           d="m 76.556287,41.017739 q -0.0455,0.01706 -0.142188,0.06256 -0.09669,0.0455 -0.233187,0.07963 -0.136499,0.03413 -0.295749,0.03413 -0.164937,0 -0.312812,-0.06256 -0.142187,-0.06256 -0.2275,-0.187688 -0.08531,-0.130812 -0.08531,-0.318499 V 38.503868 H 74.85004 v -0.307124 h 0.409499 v -1.000998 h 0.386749 v 1.000998 h 0.682499 v 0.307124 h -0.682499 v 2.013372 q 0.01138,0.159249 0.11375,0.238874 0.108062,0.07963 0.244562,0.07963 0.15925,0 0.290062,-0.05119 0.130812,-0.05687 0.15925,-0.07963 z"
           style="fill:#3c667b;stroke:none"
           id="path630" />
        <path
           d="m 79.530839,41.159926 h -0.38675 v -1.655059 q 0,-0.5005 -0.176312,-0.750749 -0.176312,-0.255937 -0.506186,-0.255937 -0.216125,0 -0.43225,0.11375 -0.210437,0.108062 -0.375374,0.301437 -0.15925,0.187687 -0.2275,0.432249 v 1.814309 h -0.386749 v -4.151868 h 0.386749 v 1.85981 q 0.176313,-0.329875 0.489125,-0.523249 0.318499,-0.199063 0.676811,-0.199063 0.255937,0 0.432249,0.091 0.182,0.091 0.290062,0.267312 0.11375,0.170625 0.164937,0.403812 0.05119,0.2275 0.05119,0.517562 z"
           style="fill:#3c667b;stroke:none"
           id="path632" />
        <path
           d="m 81.635211,41.216801 q -0.3185,0 -0.591499,-0.119437 -0.273,-0.125125 -0.472062,-0.335562 -0.199062,-0.216125 -0.312812,-0.494812 -0.108062,-0.278687 -0.108062,-0.597186 0,-0.415187 0.187687,-0.762124 0.193375,-0.346937 0.528937,-0.551686 0.335561,-0.210438 0.762123,-0.210438 0.437937,0 0.762124,0.210438 0.329874,0.210437 0.517561,0.557374 0.187688,0.341249 0.187688,0.750748 0,0.0455 0,0.091 0,0.03981 -0.0057,0.06256 h -2.53662 q 0.02844,0.3185 0.176312,0.568749 0.153562,0.244563 0.392437,0.392437 0.244562,0.142188 0.528936,0.142188 0.290062,0 0.545999,-0.147875 0.261625,-0.147875 0.364,-0.38675 l 0.335561,0.091 q -0.091,0.210437 -0.278687,0.381062 -0.187687,0.170625 -0.443624,0.267312 -0.250249,0.091 -0.540311,0.091 z m -1.091998,-1.67781 h 2.189683 q -0.02275,-0.324186 -0.176312,-0.568749 -0.147875,-0.244562 -0.392437,-0.381061 -0.238874,-0.142188 -0.528936,-0.142188 -0.290062,0 -0.528937,0.142188 -0.238874,0.136499 -0.392437,0.386749 -0.147874,0.244562 -0.170624,0.563061 z"
           style="fill:#3c667b;stroke:none"
           id="path634" />
        <path
           d="m 85.172827,38.537993 q -0.386749,0.01138 -0.682499,0.216125 -0.290062,0.204749 -0.409499,0.563061 v 1.842747 H 83.69408 v -2.963182 h 0.363999 v 0.710936 q 0.153562,-0.312812 0.403812,-0.506187 0.255937,-0.193374 0.540312,-0.216124 0.05687,-0.0057 0.09669,-0.0057 0.0455,0 0.07394,0.0057 z"
           style="fill:#3c667b;stroke:none"
           id="path636" />
      </g>
      <g
         id="g747"
         transform="matrix(0.0776048,0,0,0.0776048,27.242087,-18.935389)"
         style="stroke-width:3.40937">
        <g
           id="g3360-6-2"
           transform="matrix(0.97820397,0,0,0.9861944,-43.212014,-3.7673466)"
           style="stroke-width:3.47118">
          <rect
             x="160.00032"
             y="543.5802"
             fill="#00897c"
             width="8"
             height="45.35968"
             id="rect54-0-7"
             style="stroke-width:3.47118" />
          <rect
             x="177.95033"
             y="517.7995"
             fill="#00897c"
             width="8"
             height="71.019341"
             id="rect56-6-0"
             style="stroke-width:3.47118" />
          <rect
             x="195.90033"
             y="528.22296"
             fill="#00897c"
             width="8"
             height="60.977085"
             id="rect58-2-9"
             style="stroke-width:3.47118" />
          <rect
             x="213.85034"
             y="502.48471"
             fill="#00897c"
             width="8"
             height="86.715302"
             id="rect60-6-3"
             style="stroke-width:3.47118;stroke-dasharray:none" />
          <g
             id="g921-1-6"
             style="stroke-width:3.47118">
            <rect
               x="312.85049"
               y="560.39734"
               fill="#00897c"
               width="8"
               height="18.508566"
               id="rect54-6-8-0"
               style="stroke-width:3.47118" />
            <g
               id="g915-7-6"
               style="stroke-width:3.47118">
              <polygon
                 fill="#00897c"
                 points="222.3,553.4 222.3,561.5 298.9,561.5 298.9,578.9 306.9,578.9 306.9,561.5 380.8,561.5 380.8,479.1 255.5,479.1 255.5,487.1 372.7,487.1 372.7,553.4 "
                 id="polygon64-9-2"
                 transform="matrix(0.83911672,0,0,1,63.364662,0)"
                 style="stroke-width:3.78938" />
            </g>
            <rect
               x="-382.95032"
               y="-561.49438"
               fill="#00897c"
               width="8"
               height="82.393654"
               id="rect60-2-6-2-6"
               style="fill:#00897c;fill-opacity:1;stroke-width:3.47118;stroke-dasharray:none"
               transform="scale(-1)" />
          </g>
          <rect
             x="298.13821"
             y="587.79999"
             fill="#00897c"
             width="36.961792"
             height="5"
             id="rect66-0-1"
             style="stroke-width:3.47118" />
          <path
             fill="#3c667b"
             d="m 231.80035,481.4 v 107.5 h 8 V 482.1 c -2.6,-0.2 -5.3,-0.4 -8,-0.7 z"
             id="path70-2-8"
             style="stroke-width:3.53333" />
          <rect
             x="145.401"
             y="587.79999"
             fill="#3c667b"
             width="142.79648"
             height="5"
             id="rect72-3-7"
             style="stroke-width:3.47118" />
          <rect
             x="344.94812"
             y="587.79999"
             fill="#3c667b"
             width="38.020683"
             height="5"
             id="rect74-7-9"
             style="stroke-width:3.47118" />
          <circle
             fill="#3c667b"
             cx="236.90045"
             cy="475.10004"
             r="8.1000004"
             id="circle82-5-2"
             style="fill:#3c667b;fill-opacity:1;stroke-width:3.47118" />
          <path
             fill="#00897c"
             d="M 374.90003,488.9"
             id="path88-9-0"
             style="stroke-width:3.53333" />
          <path
             fill="#3c667b"
             d="m 231.20042,461.29952 c 1.1,-3.2 22.1,-48 25.1,-55.4 3.1,-7.5 7.3,-4.9 5.7,1.9 -2.2,9.5 -11.5,47.8 -13.1,55.8 -0.6,3.1 -7.5,10.2 -7.5,10.2 l -7.6,-2.3 c 0.1,0 -3.2,-8.3 -2.6,-10.2 z"
             id="path76-2-2"
             style="stroke-width:3.53333" />
          <path
             fill="#3c667b"
             d="m 227.80042,486.39952 c -3.3,0.5 -52.7,2.1 -60.8,2.8 -8.1,0.6 -7.7,-4.3 -0.9,-6 6.8,-1.7 52.6,-12.8 55.7,-13.6 3.1,-0.8 12.5,2 12.5,2 l 1.4,7.8 c -0.1,0 -5.9,6.7 -7.9,7 z"
             id="path78-2-3"
             style="stroke-width:3.53333" />
          <path
             fill="#3c667b"
             d="m 251.70042,476.49952 c 2.2,2.5 30.5,43.1 35.4,49.5 4.9,6.4 0.6,8.8 -4.5,4 -5.1,-4.8 -39.4,-37.1 -41.8,-39.3 -2.4,-2.1 -5.1,-11.6 -5.1,-11.6 l 5.8,-5.4 c 0,0.1 8.8,1.3 10.2,2.8 z"
             id="path80-8-7"
             style="stroke-width:3.53333" />
        </g>
        <g
           aria-label="sg"
           id="text328-5"
           style="font-size:149.333px;line-height:100%;font-family:Raleway;-inkscape-font-specification:Raleway;letter-spacing:0px;word-spacing:0px;fill:#3c667b;stroke:#000000;stroke-width:3.40937px">
          <path
             d="m 387.93483,549.04075 q -9.55731,0 -17.77063,-3.13599 -8.21331,-3.13599 -14.18663,-9.55731 l 4.18132,-7.16798 q 6.57065,6.12265 13.14131,8.95998 6.71998,2.68799 14.18663,2.68799 9.10931,0 14.78397,-3.58399 5.67465,-3.73333 5.67465,-10.60264 0,-4.62933 -2.83733,-7.01866 -2.68799,-2.53866 -7.91464,-4.03199 -5.07733,-1.64266 -12.24531,-3.43465 -8.06398,-2.24 -13.5893,-4.62933 -5.37599,-2.53866 -8.21332,-6.27198 -2.68799,-3.88266 -2.68799,-10.00531 0,-7.61599 3.73332,-12.54398 3.88266,-5.07732 10.45331,-7.61598 6.71999,-2.68799 14.9333,-2.68799 8.95998,0 15.8293,2.83733 6.86932,2.83732 11.19997,7.91464 l -4.92798,6.86932 q -4.18133,-4.77865 -10.00531,-7.01865 -5.67466,-2.38933 -12.69331,-2.38933 -4.77866,0 -9.10931,1.344 -4.33066,1.19466 -7.16799,4.18132 -2.68799,2.83733 -2.68799,7.91465 0,4.18133 2.09066,6.57065 2.09066,2.24 6.27199,3.88266 4.18132,1.49333 10.30397,3.28533 8.81065,2.38933 15.3813,4.92799 6.57065,2.38932 10.15465,6.27198 3.58399,3.88266 3.58399,10.90131 0,10.90131 -8.21332,17.02396 -8.21331,6.12265 -21.65328,6.12265 z"
             style="stroke:none"
             id="path451" />
          <path
             d="m 465.73729,548.59276 q -7.91465,0 -14.63463,-3.28533 -6.71999,-3.28533 -11.64798,-8.81065 -4.77865,-5.67465 -7.46665,-12.84263 -2.68799,-7.16799 -2.68799,-14.78397 0,-8.21332 2.53866,-15.3813 2.688,-7.31732 7.46665,-12.99197 4.92799,-5.67465 11.49864,-8.81065 6.57065,-3.28532 14.63464,-3.28532 10.00531,0 17.32262,5.07732 7.46665,5.07732 12.54397,12.54397 v -16.27729 h 9.10932 v 78.10115 q 0,10.75198 -5.22666,18.06929 -5.07732,7.46665 -13.88797,11.19998 -8.66131,3.73332 -18.96529,3.73332 -13.29063,0 -21.50395,-4.77865 -8.21331,-4.77866 -13.43997,-12.84264 l 6.27199,-4.92799 q 4.62932,7.31732 12.2453,10.90131 7.76532,3.58399 16.42663,3.58399 7.61599,0 13.88797,-2.83733 6.42132,-2.68799 10.15464,-8.21331 3.88266,-5.52532 3.88266,-13.88797 v -15.3813 q -4.47999,7.31732 -12.2453,11.79731 -7.76532,4.33066 -16.2773,4.33066 z m 2.83733,-8.51199 q 4.62932,0 8.81064,-1.64266 4.33066,-1.64266 7.91465,-4.33066 3.58399,-2.83732 5.97332,-6.27198 2.38933,-3.43466 2.98666,-7.01865 v -24.04261 q -2.23999,-5.67466 -6.42132,-10.00531 -4.18132,-4.47999 -9.55731,-6.86932 -5.22665,-2.53866 -10.90131,-2.53866 -6.57065,0 -11.7973,2.83732 -5.07732,2.688 -8.66132,7.31732 -3.43465,4.47999 -5.37598,10.15464 -1.94133,5.67466 -1.94133,11.34931 0,6.27199 2.23999,11.94664 2.24,5.52532 6.12265,10.00531 4.032,4.33066 9.25865,6.71999 5.37599,2.38932 11.34931,2.38932 z"
             style="stroke:none"
             id="path453" />
        </g>
        <g
           aria-label="rse"
           id="text990-2"
           style="font-size:160px;line-height:100%;font-family:Raleway;-inkscape-font-specification:Raleway;letter-spacing:0px;word-spacing:0px;fill:#00897c;stroke:#000000;stroke-width:3.40937px">
          <path
             d="m 579.12409,474.80092 q -11.36,0.48 -20,7.36 -8.48,6.72 -11.84,18.4 v 52.32 h -5.44 v -83.2 h 5.28 v 21.12 q 4.32,-8.8 11.52,-14.4 7.36,-5.6 15.36,-6.56 1.6,-0.16 2.88,-0.16 1.44,0 2.24,0 z"
             style="font-weight:200;-inkscape-font-specification:'Raleway Ultra-Light';stroke:none"
             id="path456" />
          <path
             d="m 619.92399,554.48092 q -9.6,0 -17.92,-3.2 -8.16,-3.36 -14.4,-10.24 l 2.88,-3.84 q 6.72,6.4 13.76,9.44 7.04,3.04 15.52,3.04 11.68,0 18.88,-4.96 7.2,-4.96 7.2,-13.76 0,-5.76 -3.36,-8.96 -3.2,-3.2 -9.44,-5.12 -6.08,-2.08 -14.88,-4.16 -8.64,-2.24 -14.4,-4.32 -5.6,-2.24 -8.48,-5.92 -2.88,-3.68 -2.88,-10.24 0,-8.32 4,-13.44 4.16,-5.28 10.88,-7.84 6.88,-2.56 15.04,-2.56 9.92,0 17.12,3.36 7.2,3.36 10.4,8.48 l -3.52,3.04 q -3.52,-4.96 -10.24,-7.52 -6.56,-2.56 -14.4,-2.56 -6.4,0 -11.84,1.92 -5.44,1.92 -8.8,5.92 -3.36,3.84 -3.36,10.4 0,5.28 2.4,8.16 2.4,2.88 7.2,4.64 4.8,1.6 12.16,3.52 9.76,2.4 16.8,4.96 7.2,2.4 11.04,6.4 3.84,4 3.84,11.2 0,11.2 -8.64,17.76 -8.48,6.4 -22.56,6.4 z"
             style="font-weight:200;-inkscape-font-specification:'Raleway Ultra-Light';stroke:none"
             id="path458" />
          <path
             d="m 705.36406,554.48092 q -8.32,0 -15.84,-3.36 -7.36,-3.52 -12.96,-9.44 -5.44,-6.08 -8.64,-13.92 -3.04,-8 -3.04,-16.96 0,-11.68 5.28,-21.28 5.28,-9.6 14.24,-15.36 9.12,-5.76 20.32,-5.76 11.52,0 20.48,5.92 9.12,5.76 14.56,15.52 5.44,9.6 5.44,21.44 0,0.64 0,1.28 0,0.64 -0.16,1.28 h -74.56 q 0.8,10.08 5.6,18.24 4.96,8.16 12.64,12.96 7.84,4.8 16.96,4.8 9.12,0 17.12,-4.64 8,-4.8 11.36,-12.16 l 4.96,1.28 q -2.4,5.76 -7.52,10.4 -5.12,4.64 -12,7.2 -6.72,2.56 -14.24,2.56 z m -35.04,-45.28 h 69.44 q -0.64,-10.56 -5.44,-18.56 -4.64,-8.16 -12.32,-12.8 -7.68,-4.64 -17.12,-4.64 -9.28,0 -16.96,4.64 -7.52,4.64 -12.32,12.8 -4.64,8.16 -5.28,18.56 z"
             style="font-weight:200;-inkscape-font-specification:'Raleway Ultra-Light';stroke:none"
             id="path460" />
        </g>
      </g>
    </g>
  </g>
</svg>
