<?xml version="1.0" encoding="UTF-8" standalone="no"?>
<!-- Created with Inkscape (http://www.inkscape.org/) -->

<svg
   width="50.146999mm"
   height="21mm"
   viewBox="0 0 50.146999 21"
   version="1.1"
   id="svg26718"
   inkscape:version="1.2.2 (b0a8486541, 2022-12-01)"
   sodipodi:docname="logo_sgrse_centered_white.svg"
   xmlns:inkscape="http://www.inkscape.org/namespaces/inkscape"
   xmlns:sodipodi="http://sodipodi.sourceforge.net/DTD/sodipodi-0.dtd"
   xmlns="http://www.w3.org/2000/svg"
   xmlns:svg="http://www.w3.org/2000/svg">
  <sodipodi:namedview
     id="namedview26720"
     pagecolor="#ffffff"
     bordercolor="#666666"
     borderopacity="1.0"
     inkscape:showpageshadow="2"
     inkscape:pageopacity="0.0"
     inkscape:pagecheckerboard="0"
     inkscape:deskcolor="#d1d1d1"
     inkscape:document-units="mm"
     showgrid="false"
     inkscape:zoom="3.7895357"
     inkscape:cx="117.03281"
     inkscape:cy="22.826015"
     inkscape:window-width="1595"
     inkscape:window-height="798"
     inkscape:window-x="0"
     inkscape:window-y="0"
     inkscape:window-maximized="0"
     inkscape:current-layer="text328-5" />
  <defs
     id="defs26715" />
  <g
     inkscape:label="Layer 1"
     inkscape:groupmode="layer"
     id="layer1">
    <g
       id="g27326"
       transform="translate(40.582638,-120.22586)"
       style="fill:#ffffff">
      <g
         id="g3360-6-2"
         transform="matrix(0.07591332,0,0,0.07653342,-51.620511,90.682732)"
         style="stroke-width:3.47118;fill:#ffffff">
        <path
           id="rect54-0-7"
           d="m 160.00032,543.5802 h 8 v 45.35968 h -8 z" />
        <path
           id="rect56-6-0"
           d="m 177.95033,517.7995 h 8 v 71.01934 h -8 z" />
        <path
           id="rect58-2-9"
           d="m 195.90033,528.22296 h 8 v 60.97709 h -8 z" />
        <path
           id="rect60-6-3"
           d="m 213.85034,502.48471 h 8 v 86.7153 h -8 z" />
        <g
           id="g921-1-6"
           style="stroke-width:3.47118;fill:#ffffff">
          <path
             id="rect54-6-8-0"
             d="m 312.85049,560.39734 h 8 v 18.50856 h -8 z" />
          <g
             id="g915-7-6"
             style="stroke-width:3.47118;fill:#ffffff">
            <path
               id="polygon64-9-2"
               style="stroke-width:3.78938"
               transform="matrix(0.83911672,0,0,1,63.364662,0)"
               d="M 380.8,479.1 H 255.5 v 8 h 117.2 v 66.3 H 222.3 v 8.1 h 76.6 v 17.4 h 8 v -17.4 h 73.9 z" />
          </g>
          <path
             id="rect60-2-6-2-6"
             transform="scale(-1)"
             d="m -382.95032,-561.49438 h 8 v 82.39365 h -8 z" />
        </g>
        <path
           id="rect66-0-1"
           d="m 298.13821,587.79999 h 36.9618 v 5 h -36.9618 z" />
        <path
           fill="#3c667b"
           d="m 231.80035,481.4 v 107.5 h 8 V 482.1 c -2.6,-0.2 -5.3,-0.4 -8,-0.7 z"
           id="path70-2-8"
           style="stroke-width:3.53333;fill:#ffffff" />
        <path
           id="rect72-3-7"
           d="m 145.401,587.79999 h 142.79648 v 5 H 145.401 Z" />
        <path
           id="rect74-7-9"
           d="m 344.94812,587.79999 h 38.02068 v 5 h -38.02068 z" />
        <path
           id="circle82-5-2"
           d="m 245.00045,475.10004 a 8.1000004,8.1000004 0 0 1 -8.1,8.1 8.1000004,8.1000004 0 0 1 -8.1,-8.1 8.1000004,8.1000004 0 0 1 8.1,-8.1 8.1000004,8.1000004 0 0 1 8.1,8.1 z" />
        <path
           fill="#00897c"
           d="M 374.90003,488.9"
           id="path88-9-0"
           style="stroke-width:3.53333;fill:#ffffff" />
        <path
           fill="#3c667b"
           d="m 231.20042,461.29952 c 1.1,-3.2 22.1,-48 25.1,-55.4 3.1,-7.5 7.3,-4.9 5.7,1.9 -2.2,9.5 -11.5,47.8 -13.1,55.8 -0.6,3.1 -7.5,10.2 -7.5,10.2 l -7.6,-2.3 c 0.1,0 -3.2,-8.3 -2.6,-10.2 z"
           id="path76-2-2"
           style="stroke-width:3.53333;fill:#ffffff" />
        <path
           fill="#3c667b"
           d="m 227.80042,486.39952 c -3.3,0.5 -52.7,2.1 -60.8,2.8 -8.1,0.6 -7.7,-4.3 -0.9,-6 6.8,-1.7 52.6,-12.8 55.7,-13.6 3.1,-0.8 12.5,2 12.5,2 l 1.4,7.8 c -0.1,0 -5.9,6.7 -7.9,7 z"
           id="path78-2-3"
           style="stroke-width:3.53333;fill:#ffffff" />
        <path
           fill="#3c667b"
           d="m 251.70042,476.49952 c 2.2,2.5 30.5,43.1 35.4,49.5 4.9,6.4 0.6,8.8 -4.5,4 -5.1,-4.8 -39.4,-37.1 -41.8,-39.3 -2.4,-2.1 -5.1,-11.6 -5.1,-11.6 l 5.8,-5.4 c 0,0.1 8.8,1.3 10.2,2.8 z"
           id="path80-8-7"
           style="stroke-width:3.53333;fill:#ffffff" />
      </g>
      <g
         aria-label="sg"
         id="text328-5"
         style="font-size:11.589px;line-height:100%;font-family:Raleway;-inkscape-font-specification:Raleway;letter-spacing:0px;word-spacing:0px;stroke:#000000;stroke-width:0.264583px">
        <path
           d="m -18.161435,133.5833 q -0.741696,0 -1.379091,-0.24337 -0.637395,-0.24337 -1.100955,-0.7417 l 0.324492,-0.55627 q 0.509916,0.47515 1.019832,0.69534 0.521505,0.2086 1.100955,0.2086 0.706929,0 1.147311,-0.27813 0.440382,-0.28973 0.440382,-0.82282 0,-0.35926 -0.220191,-0.54469 -0.208602,-0.19701 -0.614217,-0.3129 -0.394026,-0.12748 -0.950298,-0.26655 -0.625806,-0.17383 -1.054599,-0.35925 -0.417204,-0.19702 -0.637395,-0.48674 -0.208602,-0.30132 -0.208602,-0.77647 0,-0.59103 0.289725,-0.97347 0.301314,-0.39403 0.81123,-0.59104 0.521505,-0.2086 1.1589,-0.2086 0.69534,0 1.228434,0.22019 0.533094,0.22019 0.869175,0.61422 l -0.382437,0.53309 q -0.324492,-0.37085 -0.776463,-0.54468 -0.440382,-0.18543 -0.985065,-0.18543 -0.370848,0 -0.706929,0.1043 -0.336081,0.0927 -0.556272,0.3245 -0.208602,0.22019 -0.208602,0.61421 0,0.32449 0.162246,0.50992 0.162246,0.17383 0.486738,0.30131 0.324492,0.11589 0.799641,0.25496 0.683751,0.18542 1.193667,0.38244 0.509916,0.18542 0.788052,0.48674 0.278136,0.30131 0.278136,0.84599 0,0.846 -0.637395,1.32115 -0.637395,0.47515 -1.680405,0.47515 z"
           style="stroke:none"
           id="path1073" />
        <path
           d="m -12.123569,133.54853 q -0.614217,0 -1.135722,-0.25496 -0.521505,-0.25496 -0.903942,-0.68375 -0.370848,-0.44038 -0.57945,-0.99665 -0.208602,-0.55627 -0.208602,-1.14731 0,-0.6374 0.197013,-1.19367 0.208602,-0.56786 0.57945,-1.00824 0.382437,-0.44039 0.892353,-0.68375 0.509916,-0.25496 1.135722,-0.25496 0.776463,0 1.344324,0.39402 0.57945,0.39403 0.9734764,0.97348 v -1.2632 h 0.706929 v 6.06105 q 0,0.8344 -0.405615,1.40226 -0.394026,0.57945 -1.0777774,0.86918 -0.672162,0.28972 -1.471803,0.28972 -1.031421,0 -1.668816,-0.37084 -0.637395,-0.37085 -1.04301,-0.99666 l 0.486738,-0.38243 q 0.359259,0.56786 0.950298,0.84599 0.602628,0.27814 1.27479,0.27814 0.591039,0 1.077777,-0.22019 0.498327,-0.2086 0.788052,-0.6374 0.3013144,-0.42879 0.3013144,-1.07777 v -1.19367 q -0.3476704,0.56786 -0.9502984,0.91553 -0.602628,0.33608 -1.263201,0.33608 z m 0.220191,-0.66057 q 0.359259,0 0.683751,-0.12748 0.336081,-0.12748 0.614217,-0.33608 0.278136,-0.22019 0.46356,-0.48674 0.1854244,-0.26655 0.2317804,-0.54468 v -1.86583 q -0.1738354,-0.44038 -0.4983274,-0.77647 -0.324492,-0.34767 -0.741696,-0.53309 -0.405615,-0.19701 -0.845997,-0.19701 -0.509916,0 -0.915531,0.22019 -0.394026,0.2086 -0.672162,0.56786 -0.266547,0.34767 -0.417204,0.78805 -0.150657,0.44038 -0.150657,0.88077 0,0.48673 0.173835,0.92712 0.173835,0.42879 0.475149,0.77646 0.312903,0.33608 0.718518,0.5215 0.417204,0.18543 0.880764,0.18543 z"
           style="stroke:none"
           id="path1075" />
      </g>
      <g
         aria-label="rse"
         id="text990-2"
         style="font-size:12.4168px;line-height:100%;font-family:Raleway;-inkscape-font-specification:Raleway;letter-spacing:0px;word-spacing:0px;stroke:#000000;stroke-width:0.264583px">
        <path
           d="m -3.3242318,127.8219 q -0.8815928,0.0373 -1.5520999,0.57118 -0.6580904,0.5215 -0.9188432,1.42793 v 4.06029 h -0.4221712 v -6.45673 h 0.4097544 v 1.63901 q 0.3352536,-0.68292 0.8940096,-1.11751 0.5711727,-0.43459 1.1920127,-0.50909 0.124168,-0.0124 0.2235024,-0.0124 0.1117512,0 0.1738352,0 z"
           style="font-weight:200;-inkscape-font-specification:'Raleway Ultra-Light';stroke:none"
           id="path1078" />
        <path
           d="m -0.15795564,134.00547 q -0.74500798,0 -1.39068156,-0.24834 -0.6332568,-0.26075 -1.117512,-0.79467 l 0.2235024,-0.298 q 0.5215056,0.49667 1.0678448,0.73259 0.54633918,0.23592 1.20442956,0.23592 0.90642636,0 1.46518234,-0.38492 0.558756,-0.38493 0.558756,-1.06785 0,-0.447 -0.2607528,-0.69534 -0.248336,-0.24834 -0.73259118,-0.39734 -0.47183838,-0.16142 -1.15476236,-0.32283 -0.67050717,-0.17384 -1.11751196,-0.33526 -0.434588,-0.17383 -0.6580904,-0.45942 -0.2235024,-0.28559 -0.2235024,-0.79468 0,-0.64567 0.31042,-1.04301 0.3228368,-0.40975 0.8443424,-0.60842 0.53392237,-0.19867 1.16717915,-0.19867 0.76984157,0 1.32859755,0.26075 0.558756,0.26076 0.807092,0.65809 l -0.2731696,0.23592 q -0.2731696,-0.38492 -0.7946752,-0.58359 -0.50908877,-0.19866 -1.11751195,-0.19866 -0.49667198,0 -0.91884316,0.149 -0.42217119,0.149 -0.68292399,0.45942 -0.2607528,0.298 -0.2607528,0.80709 0,0.40976 0.186252,0.63326 0.186252,0.2235 0.558756,0.36008 0.37250398,0.12417 0.94367676,0.27317 0.75742477,0.18626 1.30376394,0.38493 0.558756,0.18625 0.8567592,0.49667 0.2980032,0.31042 0.2980032,0.86917 0,0.86918 -0.6705072,1.37827 -0.65809038,0.49667 -1.75076874,0.49667 z"
           style="font-weight:200;-inkscape-font-specification:'Raleway Ultra-Light';stroke:none"
           id="path1080" />
        <path
           d="m 6.47262,134.00547 q -0.6456735,0 -1.2292631,-0.26075 -0.5711728,-0.27317 -1.0057608,-0.73259 -0.4221712,-0.47184 -0.6705072,-1.08027 -0.2359191,-0.62084 -0.2359191,-1.31618 0,-0.90642 0.4097543,-1.65143 0.4097544,-0.74501 1.1050952,-1.19201 0.7077576,-0.44701 1.5769335,-0.44701 0.8940096,0 1.5893504,0.45942 0.7077576,0.44701 1.1299287,1.20443 0.4221712,0.74501 0.4221712,1.66385 0,0.0497 0,0.0993 0,0.0497 -0.012417,0.0993 H 3.7657577 q 0.062084,0.78226 0.434588,1.41552 0.3849208,0.63325 0.9809272,1.00576 0.6084232,0.3725 1.3161807,0.3725 0.7077576,0 1.3285976,-0.36008 0.62084,-0.37251 0.8815928,-0.94368 l 0.3849207,0.0993 q -0.186252,0.44701 -0.5835895,0.8071 -0.3973376,0.36008 -0.93126,0.55875 -0.5215056,0.19867 -1.1050952,0.19867 z m -2.7192791,-3.51395 h 5.388891 q -0.049667,-0.81951 -0.4221711,-1.44035 -0.3600872,-0.63326 -0.9560936,-0.99335 -0.5960064,-0.36008 -1.3285976,-0.36008 -0.7201743,0 -1.3161807,0.36008 -0.5835896,0.36009 -0.9560936,0.99335 -0.3600872,0.63325 -0.4097544,1.44035 z"
           style="font-weight:200;-inkscape-font-specification:'Raleway Ultra-Light';stroke:none"
           id="path1082" />
      </g>
    </g>
  </g>
</svg>
